<?xml version="1.0" encoding="iso-8859-1"?>
<!-- Generator: Adobe Illustrator 19.0.0, SVG Export Plug-In . SVG Version: 6.00 Build 0)  -->
<svg version="1.1" id="Capa_1" xmlns="http://www.w3.org/2000/svg" xmlns:xlink="http://www.w3.org/1999/xlink" x="0px" y="0px"
	 viewBox="0 0 449.306 449.306" style="enable-background:new 0 0 449.306 449.306;" xml:space="preserve">
<path style="fill:#4DCFE0;" d="M373.551,207.935c0-40.751-15.673-78.89-44.408-107.102c-17.241-17.241-37.616-29.78-59.559-36.571
	c-7.314,17.241-24.555,29.78-44.931,29.78S186.514,80.98,179.2,63.216C115.984,81.502,71.053,139.494,71.053,207.935v145.241
	h302.498V207.935z"/>
<path style="fill:#D4E1F4;" d="M166.139,391.837c0,16.196,6.269,30.302,17.241,41.273c10.449,10.449,25.078,16.196,40.229,16.196
	c31.869,0,57.469-25.6,57.469-57.469v-11.494H166.139V391.837z"/>
<path style="fill:#3A2C51;" d="M391.837,351.086h-18.286H71.053H57.469c-8.882,0-15.673,6.792-15.673,15.673
	c0,8.882,6.792,15.673,15.673,15.673h108.669h114.939h110.759c8.882,0,15.673-6.792,15.673-15.673
	C407.51,357.878,400.718,351.086,391.837,351.086z"/>
<path style="fill:#D4E1F4;" d="M224.653,97.176c20.376,0,37.616-12.016,44.931-29.78c2.612-5.747,3.657-12.016,3.657-18.808
	C273.241,21.943,251.298,0,224.653,0s-48.588,21.943-48.588,48.588c0,6.269,1.045,12.016,3.135,17.763
	C186.514,84.114,204.278,97.176,224.653,97.176z"/>
<g>
</g>
<g>
</g>
<g>
</g>
<g>
</g>
<g>
</g>
<g>
</g>
<g>
</g>
<g>
</g>
<g>
</g>
<g>
</g>
<g>
</g>
<g>
</g>
<g>
</g>
<g>
</g>
<g>
</g>
</svg>
